<?xml version="1.0" encoding="UTF-8"?>
<!DOCTYPE svg PUBLIC "-//W3C//DTD SVG 1.1//EN" "http://www.w3.org/Graphics/SVG/1.1/DTD/svg11.dtd">
<svg xmlns="http://www.w3.org/2000/svg" version="1.1" width="226px" height="109px" style="shape-rendering:geometricPrecision; text-rendering:geometricPrecision; image-rendering:optimizeQuality; fill-rule:evenodd; clip-rule:evenodd" xmlns:xlink="http://www.w3.org/1999/xlink">
<g><path style="opacity:1" fill="#5b8ff0" d="M 134.5,-0.5 C 138.167,-0.5 141.833,-0.5 145.5,-0.5C 146.589,6.11674 146.756,12.7834 146,19.5C 144.872,21.9898 142.872,22.9898 140,22.5C 137.648,22.6951 135.648,22.0284 134,20.5C 133.24,13.4505 133.407,6.45047 134.5,-0.5 Z"/></g>
<g><path style="opacity:1" fill="#4bad64" d="M 117.5,13.5 C 120.777,13.2161 123.943,13.5495 127,14.5C 127.789,18.0915 127.622,21.5915 126.5,25C 115.754,27.0937 112.754,23.2604 117.5,13.5 Z"/></g>
<g><path style="opacity:1" fill="#5d90f0" d="M 135.5,27.5 C 138.518,27.3354 141.518,27.502 144.5,28C 145.126,28.7504 145.626,29.5838 146,30.5C 146.667,35.5 146.667,40.5 146,45.5C 145.5,46.6667 144.667,47.5 143.5,48C 141.167,48.6667 138.833,48.6667 136.5,48C 135.333,47.5 134.5,46.6667 134,45.5C 133.333,40.1667 133.333,34.8333 134,29.5C 134.717,28.9558 135.217,28.2891 135.5,27.5 Z"/></g>
<g><path style="opacity:1" fill="#4eae65" d="M 119.5,29.5 C 122.009,30.1131 124.509,30.7798 127,31.5C 127.956,35.572 127.456,39.4054 125.5,43C 121.942,45.1539 118.775,44.6539 116,41.5C 115.333,38.5 115.333,35.5 116,32.5C 116.985,31.1859 118.152,30.1859 119.5,29.5 Z"/></g>
<g><path style="opacity:1" fill="#fac230" d="M 98.5,31.5 C 101.898,31.1796 105.232,31.513 108.5,32.5C 109.614,37.4456 109.781,42.4456 109,47.5C 101.038,51.9038 96.8709,49.5705 96.5,40.5C 96.4488,37.3029 97.1154,34.3029 98.5,31.5 Z"/></g>
<g><path style="opacity:1" fill="#e95e51" d="M 80.5,45.5 C 83.5184,45.3354 86.5184,45.502 89.5,46C 90,46.5 90.5,47 91,47.5C 91.6667,52.8333 91.6667,58.1667 91,63.5C 90.5,64.6667 89.6667,65.5 88.5,66C 86.1667,66.6667 83.8333,66.6667 81.5,66C 80.3333,65.5 79.5,64.6667 79,63.5C 77.9793,57.2899 78.4793,51.2899 80.5,45.5 Z"/></g>
<g><path style="opacity:1" fill="#4cad64" d="M 117.5,48.5 C 120.777,48.2161 123.943,48.5495 127,49.5C 127.667,54.5 127.667,59.5 127,64.5C 123.333,67.1667 119.667,67.1667 116,64.5C 114.946,58.8855 115.446,53.5522 117.5,48.5 Z"/></g>
<g><path style="opacity:1" fill="#6694f0" d="M 136.5,52.5 C 146.502,52.1592 149.169,56.4926 144.5,65.5C 135.368,68.2028 131.868,64.8695 134,55.5C 134.698,54.3094 135.531,53.3094 136.5,52.5 Z"/></g>
<g><path style="opacity:1" fill="#f9c437" d="M 99.5,53.5 C 108.998,52.1693 111.998,56.0026 108.5,65C 102.199,68.2753 98.1988,66.6087 96.5,60C 96.6516,57.3512 97.6516,55.1845 99.5,53.5 Z"/></g>
<g><path style="opacity:1" fill="#a3a3a3" d="M 179.5,74.5 C 178.167,74.5 176.833,74.5 175.5,74.5C 175.768,76.099 175.434,77.4324 174.5,78.5C 174.5,76.8333 174.5,75.1667 174.5,73.5C 176.415,73.2155 178.081,73.5489 179.5,74.5 Z"/></g>
<g><path style="opacity:1" fill="#464646" d="M 152.5,73.5 C 156.145,72.6797 158.478,74.013 159.5,77.5C 158.456,85.4474 157.789,93.4474 157.5,101.5C 154.956,101.896 152.789,101.229 151,99.5C 148.503,101.478 145.669,101.978 142.5,101C 140.667,100.5 139.5,99.3333 139,97.5C 138.209,93.0745 138.543,88.7411 140,84.5C 142.965,80.7321 146.631,79.7321 151,81.5C 152.252,78.9865 152.752,76.3198 152.5,73.5 Z M 148.5,85.5 C 150.714,86.3915 151.714,88.0582 151.5,90.5C 151.547,93.0732 150.547,95.0732 148.5,96.5C 146.257,95.5882 145.257,93.9215 145.5,91.5C 145.467,88.8984 146.467,86.8984 148.5,85.5 Z"/></g>
<g><path style="opacity:1" fill="#474747" d="M 179.5,74.5 C 180.117,74.6107 180.617,74.944 181,75.5C 181.088,84.1906 180.588,92.8572 179.5,101.5C 176.956,101.896 174.789,101.229 173,99.5C 167.33,103.074 163.33,101.741 161,95.5C 159.704,89.3764 161.538,84.5431 166.5,81C 169.099,80.231 171.599,80.3977 174,81.5C 174.483,80.552 174.649,79.552 174.5,78.5C 175.434,77.4324 175.768,76.099 175.5,74.5C 176.833,74.5 178.167,74.5 179.5,74.5 Z M 170.5,85.5 C 172.511,86.4166 173.511,88.0832 173.5,90.5C 173.918,93.2706 172.918,95.2706 170.5,96.5C 169.914,96.2907 169.414,95.9574 169,95.5C 168.037,91.8513 168.537,88.518 170.5,85.5 Z"/></g>
<g><path style="opacity:1" fill="#434343" d="M 36.5,90.5 C 37.3013,92.7929 37.968,92.4596 38.5,89.5C 39.0387,84.6786 40.2054,80.0119 42,75.5C 45.1347,74.2006 48.3013,74.2006 51.5,75.5C 52.5985,83.1623 52.5985,90.829 51.5,98.5C 49.8863,100.075 47.8863,100.741 45.5,100.5C 44.5233,97.7131 44.19,94.7131 44.5,91.5C 45.6291,89.3718 45.7958,87.0385 45,84.5C 43.9914,86.0249 43.4914,87.6916 43.5,89.5C 42.8404,93.3127 41.6738,96.9793 40,100.5C 38.2739,101.576 36.4406,101.743 34.5,101C 32.2655,95.9667 30.5988,90.8001 29.5,85.5C 28.5128,90.3054 28.1795,95.3054 28.5,100.5C 26.8333,100.5 25.1667,100.5 23.5,100.5C 22.3724,92.0644 22.7058,83.5644 24.5,75C 27.9162,74.1067 31.0828,74.6067 34,76.5C 35.5863,81.0169 36.4197,85.6836 36.5,90.5 Z"/></g>
<g><path style="opacity:1" fill="#444444" d="M 136.5,97.5 C 136.5,98.5 136.5,99.5 136.5,100.5C 134.833,100.5 133.167,100.5 131.5,100.5C 129.815,99.8163 128.815,98.483 128.5,96.5C 126.604,95.5344 124.604,95.2011 122.5,95.5C 123.152,100.327 121.152,102.16 116.5,101C 115.426,100.261 114.759,99.2613 114.5,98C 116.917,90.335 119.75,82.835 123,75.5C 126.569,73.8151 129.569,74.4817 132,77.5C 133.82,84.1112 135.32,90.7779 136.5,97.5 Z M 125.5,83.5 C 127.28,84.9899 127.946,86.9899 127.5,89.5C 126.325,89.719 125.325,89.3857 124.5,88.5C 125.309,86.9291 125.643,85.2624 125.5,83.5 Z"/></g>
<g><path style="opacity:1" fill="#a3a3a3" d="M 17.5,81.5 C 15.2589,81.9539 13.2589,81.9539 11.5,81.5C 13.2589,81.9539 15.2589,81.9539 17.5,81.5 Z"/></g>
<g><path style="opacity:1" fill="#444444" d="M 60.5,90.5 C 61.4916,90.6716 62.1583,90.3382 62.5,89.5C 67.154,89.6046 67.654,88.2713 64,85.5C 62.955,86.3734 62.1217,87.3734 61.5,88.5C 60.1667,88.5 58.8333,88.5 57.5,88.5C 56.0446,82.7699 58.5446,80.1032 65,80.5C 70.0683,80.065 72.9016,82.3983 73.5,87.5C 72.0074,91.2087 72.3407,94.7087 74.5,98C 73.8031,100.528 72.1364,101.694 69.5,101.5C 67.4043,99.8089 65.4043,99.6422 63.5,101C 56.5098,103.005 53.6764,100.505 55,93.5C 56.2635,91.393 58.0968,90.393 60.5,90.5 Z M 64.5,92.5 C 65.5075,94.268 64.8408,95.6013 62.5,96.5C 61.6143,95.675 61.281,94.675 61.5,93.5C 62.791,93.7373 63.791,93.404 64.5,92.5 Z"/></g>
<g><path style="opacity:1" fill="#464646" d="M 11.5,81.5 C 13.2589,81.9539 15.2589,81.9539 17.5,81.5C 18.1174,81.6107 18.6174,81.944 19,82.5C 19.3618,89.9126 18.6952,97.2459 17,104.5C 15.6032,106.07 14.1032,107.404 12.5,108.5C 9.16667,108.5 5.83333,108.5 2.5,108.5C 1.70951,107.599 0.709515,106.932 -0.5,106.5C -0.5,105.167 -0.5,103.833 -0.5,102.5C 2.33225,101.204 4.99891,101.537 7.5,103.5C 10.1606,102.838 11.3273,101.171 11,98.5C 6.51159,101.447 2.67825,100.78 -0.5,96.5C -0.5,93.1667 -0.5,89.8333 -0.5,86.5C 1.93192,80.9482 5.93192,79.2815 11.5,81.5 Z M 9.5,85.5 C 12.254,87.0528 13.0874,89.3861 12,92.5C 10.5993,94.1922 8.76595,94.8588 6.5,94.5C 5.92497,90.8453 6.92497,87.8453 9.5,85.5 Z"/></g>
<g><path style="opacity:1" fill="#454545" d="M 82.5,102.5 C 81.5489,103.919 81.2155,105.585 81.5,107.5C 80.1667,107.5 78.8333,107.5 77.5,107.5C 75.9735,106.508 75.3068,105.008 75.5,103C 76.2943,95.5062 76.961,88.0062 77.5,80.5C 80.0444,80.1043 82.2111,80.771 84,82.5C 86.4973,80.5218 89.3307,80.0218 92.5,81C 94.3333,81.5 95.5,82.6667 96,84.5C 97.6515,90.9643 96.1515,96.4643 91.5,101C 88.3307,101.978 85.4973,101.478 83,99.5C 82.5172,100.448 82.3505,101.448 82.5,102.5 Z M 85.5,85.5 C 87.9905,86.1081 89.3238,87.7748 89.5,90.5C 89.3378,93.2217 88.1711,95.2217 86,96.5C 85.228,96.3552 84.5613,96.0219 84,95.5C 83.037,91.8513 83.537,88.518 85.5,85.5 Z"/></g>
<g><path style="opacity:1" fill="#494949" d="M 103.5,80.5 C 108.158,79.5142 111.824,80.8476 114.5,84.5C 112.43,89.3491 109.764,89.6824 106.5,85.5C 105.692,85.8076 105.025,86.3076 104.5,87C 107.418,88.7088 110.252,90.5421 113,92.5C 114.123,95.9563 113.29,98.7897 110.5,101C 106.833,101.667 103.167,101.667 99.5,101C 97.4732,99.6043 97.1398,97.9376 98.5,96C 108.23,97.0305 108.73,95.5305 100,91.5C 97.7255,86.7199 98.8922,83.0532 103.5,80.5 Z"/></g>
<g><path style="opacity:1" fill="#474747" d="M 189.5,80.5 C 202.037,79.2296 206.203,84.563 202,96.5C 198.345,101.275 193.512,102.775 187.5,101C 185.667,100.5 184.5,99.3333 184,97.5C 181.959,90.3512 183.792,84.6845 189.5,80.5 Z M 193.5,85.5 C 197.543,89.3573 197.21,93.024 192.5,96.5C 191.914,96.2907 191.414,95.9574 191,95.5C 190.333,92.8333 190.333,90.1667 191,87.5C 191.995,86.9341 192.828,86.2674 193.5,85.5 Z"/></g>
<g><path style="opacity:1" fill="#474747" d="M 225.5,82.5 C 225.5,87.5 225.5,92.5 225.5,97.5C 224.566,98.5676 224.232,99.901 224.5,101.5C 222.533,101.739 220.699,101.406 219,100.5C 218.946,95.3211 218.279,90.3211 217,85.5C 215.667,86.1667 214.667,87.1667 214,88.5C 212.805,92.7514 212.305,97.0848 212.5,101.5C 209.921,101.917 207.754,101.25 206,99.5C 205.393,95.4631 205.56,91.4631 206.5,87.5C 207.461,85.7354 207.795,83.7354 207.5,81.5C 208.833,81.5 210.167,81.5 211.5,81.5C 212.15,81.8039 212.817,82.1373 213.5,82.5C 217.532,79.8407 221.532,79.8407 225.5,82.5 Z"/></g>
<g><path style="opacity:1" fill="#7f7f7f" d="M 211.5,81.5 C 210.167,81.5 208.833,81.5 207.5,81.5C 207.795,83.7354 207.461,85.7354 206.5,87.5C 206.5,85.1667 206.5,82.8333 206.5,80.5C 208.415,80.2155 210.081,80.5489 211.5,81.5 Z"/></g>
<g><path style="opacity:1" fill="#d6d6d6" d="M 44.5,91.5 C 44.6716,90.5084 44.3382,89.8417 43.5,89.5C 43.4914,87.6916 43.9914,86.0249 45,84.5C 45.7958,87.0385 45.6291,89.3718 44.5,91.5 Z"/></g>
<g><path style="opacity:1" fill="#acacac" d="M 57.5,88.5 C 58.8333,88.5 60.1667,88.5 61.5,88.5C 61.5,89.1667 61.8333,89.5 62.5,89.5C 62.1583,90.3382 61.4916,90.6716 60.5,90.5C 59.5,89.8333 58.5,89.1667 57.5,88.5 Z"/></g>
<g><path style="opacity:1" fill="#c0c0c0" d="M 38.5,89.5 C 37.968,92.4596 37.3013,92.7929 36.5,90.5C 37.1667,90.1667 37.8333,89.8333 38.5,89.5 Z"/></g>
<g><path style="opacity:1" fill="#7b7b7b" d="M 29.5,85.5 C 29.5,90.8333 29.5,96.1667 29.5,101.5C 27.2646,101.795 25.2646,101.461 23.5,100.5C 25.1667,100.5 26.8333,100.5 28.5,100.5C 28.1795,95.3054 28.5128,90.3054 29.5,85.5 Z"/></g>
<g><path style="opacity:1" fill="#7f7f7f" d="M 51.5,98.5 C 51.5,99.5 51.5,100.5 51.5,101.5C 49.2646,101.795 47.2646,101.461 45.5,100.5C 47.2646,101.461 49.2646,101.795 51.5,101.5C 51.5,100.5 51.5,99.5 51.5,98.5 Z"/></g>
<g><path style="opacity:1" fill="#888888" d="M 136.5,97.5 C 137.434,98.5676 137.768,99.901 137.5,101.5C 135.265,101.795 133.265,101.461 131.5,100.5C 133.167,100.5 134.833,100.5 136.5,100.5C 136.5,99.5 136.5,98.5 136.5,97.5 Z"/></g>
<g><path style="opacity:1" fill="#9c9c9c" d="M 82.5,102.5 C 82.5,104.5 82.5,106.5 82.5,108.5C 80.8333,108.5 79.1667,108.5 77.5,108.5C 77.5,108.167 77.5,107.833 77.5,107.5C 78.8333,107.5 80.1667,107.5 81.5,107.5C 81.2155,105.585 81.5489,103.919 82.5,102.5 Z"/></g>
</svg>
