<?xml version="1.0" encoding="UTF-8"?>
<!DOCTYPE svg PUBLIC "-//W3C//DTD SVG 1.1//EN" "http://www.w3.org/Graphics/SVG/1.1/DTD/svg11.dtd">
<svg xmlns="http://www.w3.org/2000/svg" version="1.1" width="68px" height="67px" style="shape-rendering:geometricPrecision; text-rendering:geometricPrecision; image-rendering:optimizeQuality; fill-rule:evenodd; clip-rule:evenodd" xmlns:xlink="http://www.w3.org/1999/xlink">
<g><path style="opacity:1" fill="#5b8ff0" d="M 55.5,-0.5 C 59.1667,-0.5 62.8333,-0.5 66.5,-0.5C 66.3284,0.491622 66.6618,1.15829 67.5,1.5C 67.5,7.5 67.5,13.5 67.5,19.5C 66.1734,21.9642 64.0067,22.9642 61,22.5C 58.6477,22.6951 56.6477,22.0284 55,20.5C 54.2402,13.4505 54.4069,6.45047 55.5,-0.5 Z"/></g>
<g><path style="opacity:1" fill="#4bad64" d="M 38.5,13.5 C 41.7766,13.2161 44.9433,13.5495 48,14.5C 48.7886,18.0915 48.6219,21.5915 47.5,25C 36.7541,27.0937 33.7541,23.2604 38.5,13.5 Z"/></g>
<g><path style="opacity:1" fill="#5d90f0" d="M 67.5,30.5 C 67.5,35.5 67.5,40.5 67.5,45.5C 64.3987,48.5666 60.7321,49.2332 56.5,47.5C 55.8076,46.9747 55.3076,46.3081 55,45.5C 54.3333,40.1667 54.3333,34.8333 55,29.5C 58.1831,27.4766 61.6831,26.9766 65.5,28C 66.0659,28.9947 66.7326,29.828 67.5,30.5 Z"/></g>
<g><path style="opacity:1" fill="#4eae65" d="M 40.5,29.5 C 43.0092,30.1131 45.5092,30.7798 48,31.5C 48.9559,35.572 48.4559,39.4054 46.5,43C 42.9416,45.1539 39.7749,44.6539 37,41.5C 36.3333,38.5 36.3333,35.5 37,32.5C 37.985,31.1859 39.1516,30.1859 40.5,29.5 Z"/></g>
<g><path style="opacity:1" fill="#fac230" d="M 19.5,31.5 C 22.8984,31.1796 26.2317,31.513 29.5,32.5C 30.6143,37.4456 30.781,42.4456 30,47.5C 22.0376,51.9038 17.8709,49.5705 17.5,40.5C 17.4488,37.3029 18.1154,34.3029 19.5,31.5 Z"/></g>
<g><path style="opacity:1" fill="#e95e51" d="M 9.5,66.5 C 7.16667,66.5 4.83333,66.5 2.5,66.5C 1.5,65.5 0.5,64.5 -0.5,63.5C -0.5,58.5 -0.5,53.5 -0.5,48.5C 0.826591,46.0358 2.99326,45.0358 6,45.5C 8.35228,45.3049 10.3523,45.9716 12,47.5C 12.6667,52.8333 12.6667,58.1667 12,63.5C 11.3021,64.6906 10.4687,65.6906 9.5,66.5 Z"/></g>
<g><path style="opacity:1" fill="#4cad64" d="M 45.5,66.5 C 43.5,66.5 41.5,66.5 39.5,66.5C 38.828,65.7326 37.9947,65.0659 37,64.5C 36.3333,59.8333 36.3333,55.1667 37,50.5C 40.4418,48.2666 44.1085,47.9332 48,49.5C 48.6667,54.5 48.6667,59.5 48,64.5C 47.0053,65.0659 46.172,65.7326 45.5,66.5 Z"/></g>
<g><path style="opacity:1" fill="#6694f0" d="M 67.5,55.5 C 67.5,58.1667 67.5,60.8333 67.5,63.5C 66.5,64.5 65.5,65.5 64.5,66.5C 62.1667,66.5 59.8333,66.5 57.5,66.5C 54.3969,63.0527 53.7302,59.0527 55.5,54.5C 59.8429,51.6475 63.8429,51.9809 67.5,55.5 Z"/></g>
<g><path style="opacity:1" fill="#f9c437" d="M 27.5,66.5 C 25.1667,66.5 22.8333,66.5 20.5,66.5C 17.0247,62.7816 16.6914,58.7816 19.5,54.5C 28.9624,51.4612 32.4624,54.7946 30,64.5C 29.0053,65.0659 28.172,65.7326 27.5,66.5 Z"/></g>
</svg>
